Coordinates
version=1
nRows=12
nColumns=38
inDegrees=yes

Units are S.I. units (second, meters, Newtons, ...)
Angles are in degrees.

endheader
time	pelvis_tilt	pelvis_list	pelvis_rotation	pelvis_tx	pelvis_ty	pelvis_tz	hip_flexion_r	hip_adduction_r	hip_rotation_r	knee_angle_r	ankle_angle_r	subtalar_angle_r	mtp_angle_r	hip_flexion_l	hip_adduction_l	hip_rotation_l	knee_angle_l	ankle_angle_l	subtalar_angle_l	mtp_angle_l	lumbar_extension	lumbar_bending	lumbar_rotation	arm_flex_r	arm_add_r	arm_rot_r	elbow_flex_r	pro_sup_r	wrist_flex_r	wrist_dev_r	arm_flex_l	arm_add_l	arm_rot_l	elbow_flex_l	pro_sup_l	wrist_flex_l	wrist_dev_l
      2.11000000	      7.42079916	      0.64125111	     -0.47968474	      0.90430016	      1.00263665	     -0.25621159	      8.38023176	     -1.87885542	     -8.32758243	    -62.90291326	      1.80779960	     -9.32217799	      0.00000000	      1.77060781	      4.07056345	      6.79842781	    -18.74386402	      7.49244749	     -7.74571666	      0.00000000	    -21.81009609	     -2.95092313	      1.15981847	     -6.85017438	     -8.39561713	     17.61433524	     64.35692536	     44.30422650	      0.00000000	      0.00000000	      5.58831639	     -8.71311139	     25.89191540	     47.13971225	     44.30422650	      0.00000000	      0.00000000
      2.12000000	      7.13484101	      0.37324016	     -0.34598560	      0.91740501	      1.00409470	     -0.25662328	      9.87553650	     -1.50320856	     -8.31137017	    -61.85756849	      2.88084120	     -8.72972363	      0.00000000	      0.73411661	      3.82155217	      7.44643201	    -17.75805990	      7.39670598	     -8.34422359	      0.00000000	    -21.46651658	     -2.56498830	      0.88039051	     -7.06226642	     -8.07253991	     17.43068559	     62.51916496	     44.34073863	      0.00000000	      0.00000000	      5.95678101	     -8.94679206	     26.68845567	     49.62565767	     44.34073863	      0.00000000	      0.00000000
      2.13000000	      6.81901258	      0.17585612	     -0.21532540	      0.93059221	      1.00542346	     -0.25696854	     11.31454105	     -1.17162088	     -8.30633101	    -60.50820605	      3.49454953	     -8.76442580	      0.00000000	     -0.23561754	      3.55515502	      7.52232407	    -16.79843352	      7.52553001	     -8.15751375	      0.00000000	    -21.06767637	     -2.23230085	      0.50866027	     -7.51762338	     -8.04972979	     17.47171967	     62.28667237	     44.34320229	      0.00000000	      0.00000000	      6.65725809	     -8.64618864	     26.71794734	     50.07548851	     44.34320229	      0.00000000	      0.00000000
      2.14000000	      6.53218985	     -0.05866504	     -0.17469743	      0.94390558	      1.00650954	     -0.25727203	     12.57146477	     -0.80237574	     -8.30658690	    -58.80069202	      3.98395035	     -8.85908990	      0.00000000	     -1.27795415	      3.26329228	      7.59189513	    -15.78959460	      7.68421311	     -8.13755469	      0.00000000	    -20.66190677	     -1.86783688	      0.35798323	     -8.16968406	     -8.04675157	     17.44897259	     61.79426175	     44.34740471	      0.00000000	      0.00000000	      7.34233116	     -8.32682257	     26.85776106	     50.89835732	     44.34740471	      0.00000000	      0.00000000
      2.15000000	      6.31208177	     -0.22113815	     -0.13164653	      0.95714796	      1.00739155	     -0.25752854	     13.70603670	     -0.49976893	     -8.28080420	    -56.88051721	      4.30805075	     -9.07599597	      0.00000000	     -2.47124409	      3.10453435	      8.05725108	    -14.60344781	      7.50474852	     -8.87604961	      0.00000000	    -20.39229798	     -1.60062687	      0.07553119	     -8.33195284	     -7.62610401	     16.85305062	     60.08219060	     44.37844933	      0.00000000	      0.00000000	      7.28409851	     -8.91436509	     27.60514547	     54.64550698	     44.37844933	      0.00000000	      0.00000000
      2.16000000	      5.98658057	     -0.32559548	     -0.09092959	      0.97034023	      1.00779089	     -0.25787853	     14.97432964	     -0.34613724	     -8.33469351	    -54.87848940	      4.46946570	     -9.08572018	      0.00000000	     -3.44689937	      2.94734785	      7.92677785	    -13.60402848	      7.61850866	     -8.74468546	      0.00000000	    -19.98090493	     -1.35761258	     -0.22802229	     -8.86944052	     -7.63531400	     16.88002004	     59.86318979	     44.38088190	      0.00000000	      0.00000000	      7.94703521	     -8.57381806	     27.61743739	     55.15969010	     44.38088190	      0.00000000	      0.00000000
      2.17000000	      5.70899078	     -0.39649623	     -0.09559061	      0.98360237	      1.00790237	     -0.25818216	     15.97491616	     -0.14981848	     -8.31631304	    -52.49247034	      4.78670560	     -9.36545292	      0.00000000	     -4.47693983	      2.83402794	      7.77927172	    -12.63174397	      7.64908318	     -8.76158268	      0.00000000	    -19.61902863	     -1.15758070	     -0.41006367	     -9.46964494	     -7.67091521	     16.85799914	     59.54899309	     44.38353369	      0.00000000	      0.00000000	      8.57052984	     -8.29423784	     27.68230267	     55.87237323	     44.38353369	      0.00000000	      0.00000000
      2.18000000	      5.68167838	     -0.52848342	     -0.14207525	      0.99681938	      1.00816832	     -0.25825327	     17.04307344	     -0.03491862	     -8.79102369	    -50.35467115	      3.37882571	    -10.48111794	      0.00000000	     -5.89968399	      2.70741684	      7.99145396	    -11.37792463	      7.51608885	     -9.42747676	      0.00000000	    -19.61575174	     -0.94781782	     -0.64900136	     -9.86921307	     -7.15013724	     15.65215787	     58.41230680	     44.42068524	      0.00000000	      0.00000000	      8.22569922	     -8.98528043	     28.04366811	     60.46680002	     44.42068524	      0.00000000	      0.00000000
      2.19000000	      5.59749938	     -0.46480457	     -0.14371051	      1.01011006	      1.00781630	     -0.25847525	     17.39628497	      0.22952364	     -8.05769755	    -47.23345007	      4.43346243	    -10.02749008	      0.00000000	     -7.14904682	      2.74103665	      7.66259999	    -10.32475739	      7.71335294	     -9.23689615	      0.00000000	    -19.51993904	     -0.89696695	     -0.90662884	    -10.30161920	     -7.15427400	     15.45340621	     58.16515335	     44.43267719	      0.00000000	      0.00000000	      8.72340428	     -8.86386294	     28.00333086	     61.70245839	     44.43267719	      0.00000000	      0.00000000
      2.20000000	      5.47039875	     -0.44139719	     -0.14757415	      1.02344043	      1.00710239	     -0.25866810	     18.00343251	      0.30588112	     -8.00213997	    -44.30076656	      4.36748829	     -9.98484528	      0.00000000	     -8.37999610	      2.75520599	      7.41385890	     -9.25827541	      7.67067572	     -9.34242477	      0.00000000	    -19.37976293	     -0.78596065	     -1.10871873	    -11.04472858	     -7.13650913	     15.40037165	     57.68194815	     44.43827164	      0.00000000	      0.00000000	      9.31691031	     -8.79958935	     28.14819143	     62.69450660	     44.43827164	      0.00000000	      0.00000000
      2.21000000	      5.52133187	     -0.31006897	     -0.11428952	      1.03684800	      1.00634153	     -0.25881443	     18.27295585	      0.36530343	     -7.53774470	    -41.08982225	      4.07814937	     -9.97472606	      0.00000000	     -9.85631259	      2.91904616	      7.60487517	     -8.08116382	      7.39212246	    -10.17588114	      0.00000000	    -19.46908159	     -0.79925944	     -1.55215315	    -11.20072623	     -6.92211728	     15.03254670	     56.71397743	     44.45945454	      0.00000000	      0.00000000	      9.39212867	     -9.49084701	     28.86186618	     65.77477883	     44.45945454	      0.00000000	      0.00000000
      2.22000000	      5.61716287	     -0.12207137	     -0.15278021	      1.05038112	      1.00538782	     -0.25895571	     18.50515407	      0.23151844	     -7.67281205	    -37.86217836	      3.58555854	     -9.99448483	      0.00000000	    -11.26828488	      3.11908912	      7.08673610	     -7.19050617	      7.40902557	     -9.95586186	      0.00000000	    -19.58909798	     -0.86863206	     -1.82237603	    -11.60741171	     -6.93173928	     14.98184558	     56.29050916	     44.46920385	      0.00000000	      0.00000000	      9.84522924	     -9.50406179	     28.98973079	     67.00636419	     44.46920385	      0.00000000	      0.00000000
